<svg width="100%" height="100%" id="svg" viewBox="0 0 1440 690" xmlns="http://www.w3.org/2000/svg" class="transition duration-300 ease-in-out delay-150"><defs><linearGradient id="gradient" x1="0%" y1="50%" x2="100%" y2="50%"><stop offset="5%" stop-color="#F78DA7"></stop><stop offset="95%" stop-color="#ff6900"></stop></linearGradient></defs><path d="M 0,700 L 0,105 C 54.8439689127389,92.92147558751222 109.6879378254778,80.84295117502445 149,100 C 188.3120621745222,119.15704882497555 212.09221761082767,169.54967088741444 266,156 C 319.9077823891723,142.45032911258556 403.94319173121147,64.95836527531787 451,63 C 498.05680826878853,61.041634724682126 508.13501546432633,134.61686801131407 552,156 C 595.8649845356737,177.38313198868593 673.5167464114833,146.57416267942585 721,143 C 768.4832535885167,139.42583732057415 785.7979988897405,163.08648127098255 839,148 C 892.2020011102595,132.91351872901745 981.291258029554,79.07991223664385 1028,63 C 1074.708741970446,46.92008776335615 1079.036968992043,68.59386978244204 1125,74 C 1170.963031007957,79.40613021755796 1258.5608660022733,68.54460863358798 1318,71 C 1377.4391339977267,73.45539136641202 1408.7195669988632,89.22769568320601 1440,105 L 1440,700 L 0,700 Z" stroke="none" stroke-width="0" fill="url(#gradient)" fill-opacity="0.265" class="transition-all duration-300 ease-in-out delay-150 path-0"></path><defs><linearGradient id="gradient" x1="0%" y1="50%" x2="100%" y2="50%"><stop offset="5%" stop-color="#F78DA7"></stop><stop offset="95%" stop-color="#ff6900"></stop></linearGradient></defs><path d="M 0,700 L 0,245 C 63.98612175843928,251.23154193872426 127.97224351687856,257.4630838774485 168,259 C 208.02775648312144,260.5369161225515 224.097147690925,257.37920642893016 262,263 C 299.902852309075,268.62079357106984 359.63916571942156,283.0200904068307 421,269 C 482.36083428057844,254.97990959316928 545.3461894313886,212.54043194374685 595,199 C 644.6538105686114,185.45956805625315 680.9760765550238,200.81818181818184 724,225 C 767.0239234449762,249.18181818181816 816.7495043485158,282.1868407835259 866,279 C 915.2504956514842,275.8131592164741 964.0259060509134,236.43445504771472 1014,233 C 1063.9740939490866,229.56554495228528 1115.146871447831,262.0753390256153 1166,268 C 1216.853128552169,273.9246609743847 1267.3866081577626,253.26418884982422 1313,245 C 1358.6133918422374,236.73581115017578 1399.3066959211187,240.8679055750879 1440,245 L 1440,700 L 0,700 Z" stroke="none" stroke-width="0" fill="url(#gradient)" fill-opacity="0.4" class="transition-all duration-300 ease-in-out delay-150 path-1"></path><defs><linearGradient id="gradient" x1="0%" y1="50%" x2="100%" y2="50%"><stop offset="5%" stop-color="#F78DA7"></stop><stop offset="95%" stop-color="#ff6900"></stop></linearGradient></defs><path d="M 0,700 L 0,385 C 37.2473102646118,382.48914853683686 74.4946205292236,379.9782970736737 126,365 C 177.5053794707764,350.0217029263263 243.2688281477174,322.57596024214223 304,340 C 364.7311718522826,357.42403975785777 420.43006687990703,419.71786195775735 457,430 C 493.56993312009297,440.28213804224265 511.01090433265483,398.55259192682854 557,391 C 602.9890956673452,383.44740807317146 677.5263157894736,410.0717703349282 730,416 C 782.4736842105264,421.9282296650718 812.8838325094505,407.1603267334585 854,409 C 895.1161674905495,410.8396732665415 946.9383541727248,429.28692273123795 999,427 C 1051.0616458272752,424.71307726876205 1103.362750799651,401.6919823415898 1154,396 C 1204.637249200349,390.3080176584102 1253.6106426286713,401.94514790240294 1301,403 C 1348.3893573713287,404.05485209759706 1394.1946786856643,394.52742604879853 1440,385 L 1440,700 L 0,700 Z" stroke="none" stroke-width="0" fill="url(#gradient)" fill-opacity="0.53" class="transition-all duration-300 ease-in-out delay-150 path-2"></path><defs><linearGradient id="gradient" x1="0%" y1="50%" x2="100%" y2="50%"><stop offset="5%" stop-color="#F78DA7"></stop><stop offset="95%" stop-color="#ff6900"></stop></linearGradient></defs><path d="M 0,700 L 0,525 C 42.18298131063469,541.5973988210103 84.36596262126938,558.1947976420207 135,542 C 185.63403737873062,525.8052023579793 244.71913082555716,476.8182082529277 294,481 C 343.28086917444284,485.1817917470723 382.75751407650216,542.5323693462686 426,563 C 469.24248592349784,583.4676306537314 516.2508128684343,567.0523143619973 568,549 C 619.7491871315657,530.9476856380027 676.2392344497608,511.25837320574163 729,506 C 781.7607655502392,500.74162679425837 830.7922493325227,509.9141928150361 876,509 C 921.2077506674773,508.0858071849639 962.5917682201484,497.084855534114 1013,510 C 1063.4082317798516,522.915144465886 1122.8406777868831,559.7463850485077 1165,574 C 1207.1593222131169,588.2536149514923 1232.0455206323193,579.9296042718549 1275,568 C 1317.9544793676807,556.0703957281451 1378.9772396838403,540.5351978640725 1440,525 L 1440,700 L 0,700 Z" stroke="none" stroke-width="0" fill="url(#gradient)" fill-opacity="1" class="transition-all duration-300 ease-in-out delay-150 path-3"></path></svg>