<svg xmlns="http://www.w3.org/2000/svg" xmlns:xlink="http://www.w3.org/1999/xlink" version="1.1" x="0px" y="0px" viewBox="0 0 100 125" enable-background="new 0 0 100 100" xml:space="preserve"><g><path d="M46.19,27.75c-0.15,0-0.31,0.01-0.46,0.01c-0.35,0.01-0.69,0.02-1.04,0.03c-0.44,0.02-0.88,0.03-1.32,0.05   c-0.45,0.02-0.89,0.04-1.33,0.07c-0.45,0.02-0.89,0.05-1.32,0.07c-0.51,0.03-1.02,0.07-1.53,0.11c-0.58,0.04-1.16,0.09-1.73,0.14   c-2.08,0.18-4.08,0.41-6,0.69c-1.13,0.16-2.23,0.34-3.3,0.53c-0.37,0.07-0.74,0.13-1.1,0.21c-0.19,0.03-0.37,0.06-0.56,0.1   c-0.15,0.03-0.31,0.06-0.46,0.09v0.01c-0.9,0.17-1.77,0.36-2.61,0.57c-0.02,0.01-0.05,0.01-0.07,0.02   c0.67-0.89,1.38-1.75,2.15-2.57c0.26-0.3,0.54-0.59,0.84-0.88c3.08-3.11,6.79-5.61,10.93-7.29c0.01,0.01,0.02,0.01,0.03,0.03   c0.21,0.14,0.42,0.3,0.63,0.46c0.89,0.67,1.81,1.41,2.75,2.23c0.47,0.4,0.95,0.83,1.43,1.28c0.25,0.22,0.49,0.45,0.73,0.68   c0.49,0.46,0.98,0.94,1.47,1.44c0.21,0.2,0.42,0.41,0.62,0.62C45.36,26.87,45.77,27.3,46.19,27.75z"/><path d="M26.5,29.76c-0.15,0.03-0.31,0.06-0.46,0.1v-0.01C26.19,29.82,26.35,29.79,26.5,29.76z"/><path d="M60.67,19.28c-0.43,0.32-0.86,0.65-1.29,0.99c-0.22,0.18-0.45,0.35-0.67,0.54c-2.29,1.88-4.73,4.21-7.22,6.92   c-0.65-0.01-1.29-0.02-1.95-0.02c-0.66,0-1.32,0.01-1.97,0.01c-2.25-2.44-4.44-4.58-6.53-6.35c-0.46-0.39-0.9-0.75-1.34-1.1   c-0.44-0.34-0.87-0.67-1.29-0.99c3.47-1.26,7.22-1.95,11.13-1.95C53.45,17.33,57.2,18.02,60.67,19.28z"/><path d="M75.71,30.45c-0.5-0.12-1.01-0.24-1.53-0.35c-0.37-0.09-0.75-0.17-1.14-0.24c-0.15-0.04-0.3-0.07-0.45-0.1   c-0.19-0.04-0.38-0.07-0.57-0.11c-0.36-0.07-0.73-0.13-1.1-0.2c-0.56-0.1-1.14-0.2-1.72-0.29c-0.53-0.09-1.06-0.17-1.61-0.25   c-0.67-0.09-1.35-0.18-2.04-0.27c-0.59-0.07-1.19-0.14-1.8-0.2c-0.63-0.07-1.26-0.13-1.91-0.19c-0.64-0.06-1.29-0.11-1.95-0.16   c-0.61-0.05-1.22-0.09-1.84-0.13c-1.09-0.06-2.2-0.12-3.33-0.15c-0.45-0.02-0.9-0.04-1.36-0.05c-0.16,0-0.31-0.01-0.47-0.01   c0.12-0.14,0.25-0.26,0.37-0.39c0.25-0.27,0.5-0.52,0.75-0.78s0.5-0.51,0.75-0.75c0.49-0.5,0.98-0.98,1.47-1.44   c0.24-0.23,0.48-0.46,0.73-0.68c0.48-0.45,0.96-0.88,1.43-1.28c0.94-0.82,1.86-1.56,2.75-2.23c0.21-0.16,0.42-0.32,0.63-0.46   c0.01-0.02,0.02-0.02,0.03-0.03c4.14,1.68,7.85,4.18,10.93,7.29c0.29,0.29,0.57,0.58,0.84,0.88C74.33,28.7,75.04,29.56,75.71,30.45   z"/><path d="M49.54,29.91c-0.35-0.41-0.71-0.8-1.06-1.19c0.35-0.01,0.71-0.01,1.06-0.01c0.35,0,0.7,0,1.05,0.01   c-0.1,0.12-0.21,0.24-0.32,0.36C50.03,29.35,49.78,29.63,49.54,29.91z"/><path d="M48.86,30.7c-0.39,0.46-0.79,0.93-1.18,1.41c-0.4,0.48-0.79,0.96-1.19,1.46c-1.58,1.97-3.17,4.08-4.73,6.29   c-0.27,0.38-0.53,0.75-0.79,1.13c-0.52,0.75-1.04,1.51-1.55,2.28c-1.28,1.93-2.49,3.84-3.62,5.73c-0.2,0.33-0.4,0.66-0.59,1   c-0.04,0.07-0.09,0.15-0.13,0.22c-0.19,0.33-0.38,0.65-0.56,0.97c-0.37,0.64-0.72,1.27-1.07,1.9c-0.28,0.5-0.55,1.01-0.82,1.52   c-0.26,0.49-0.52,0.97-0.77,1.46c-1.29,2.5-2.41,4.92-3.37,7.22c-0.19,0.46-0.38,0.91-0.55,1.36c-0.18,0.45-0.35,0.89-0.51,1.33   c-0.17,0.44-0.32,0.87-0.47,1.3c-0.58,1.64-1.05,3.19-1.4,4.65c-0.01,0.04-0.02,0.07-0.03,0.1c-0.01,0.03-0.02,0.06-0.03,0.09   C20.14,66.3,16.87,58.53,16.87,50c0-0.91,0.04-1.81,0.12-2.7c0.02-0.35,0.05-0.69,0.09-1.03c0.61-5.33,2.49-10.26,5.35-14.5v-0.01   c0.39-0.1,0.79-0.2,1.2-0.3c0.47-0.11,0.94-0.23,1.43-0.33c0.38-0.09,0.76-0.17,1.15-0.25c0.04-0.01,0.09-0.02,0.13-0.03   c0.34-0.06,0.68-0.13,1.03-0.19c0.31-0.06,0.63-0.12,0.95-0.18c0.36-0.07,0.72-0.13,1.09-0.2c0.99-0.16,2.01-0.31,3.04-0.45   c0.46-0.07,0.92-0.13,1.39-0.19c1.06-0.13,2.15-0.25,3.25-0.35c0.37-0.04,0.75-0.07,1.13-0.1c0.49-0.04,0.99-0.08,1.48-0.12   c0.38-0.03,0.77-0.06,1.17-0.08c0.33-0.02,0.67-0.04,1.01-0.06c1.71-0.1,3.45-0.17,5.22-0.2C47.69,29.37,48.27,30.02,48.86,30.7z"/><path d="M25.5,72.12c0.01-0.03,0.02-0.06,0.03-0.09c-0.01,0.03-0.01,0.06-0.02,0.1C25.5,72.12,25.5,72.12,25.5,72.12z"/><path d="M26.4,72.77c-0.02,0.08-0.04,0.16-0.05,0.23h-0.01C26.36,72.93,26.38,72.85,26.4,72.77z"/><path d="M34.08,54.07c-0.58,1.09-1.14,2.16-1.67,3.21C32.93,56.22,33.5,55.15,34.08,54.07z"/><path d="M35.36,50.26c-0.09-0.01-0.19-0.03-0.28-0.04c0.04-0.07,0.09-0.15,0.13-0.22C35.26,50.09,35.31,50.18,35.36,50.26z"/><path d="M82.2,50c0,8.54-3.28,16.31-8.63,22.13c-0.09-0.38-0.19-0.77-0.3-1.16c-0.1-0.39-0.22-0.79-0.34-1.2   c-0.25-0.84-0.53-1.71-0.85-2.6c-0.12-0.37-0.26-0.75-0.41-1.13c-0.74-2.01-1.63-4.13-2.67-6.34c-0.18-0.4-0.37-0.79-0.56-1.19   c-0.39-0.8-0.79-1.6-1.2-2.41c-0.83-1.61-1.72-3.25-2.68-4.91c-0.18-0.32-0.37-0.65-0.56-0.97c-0.04-0.07-0.09-0.15-0.13-0.22   c-0.19-0.34-0.39-0.67-0.59-1c-1.13-1.89-2.34-3.8-3.62-5.73c-0.39-0.58-0.78-1.16-1.17-1.72c-0.39-0.57-0.78-1.13-1.17-1.69   c-0.79-1.11-1.58-2.2-2.37-3.25c-0.39-0.52-0.78-1.03-1.18-1.54c-0.38-0.49-0.76-0.97-1.14-1.44c-0.41-0.52-0.82-1.02-1.23-1.52   c-0.37-0.45-0.74-0.89-1.1-1.32c-0.03-0.03-0.05-0.06-0.08-0.09c0.25-0.29,0.5-0.57,0.75-0.85c0.33-0.38,0.67-0.75,1.01-1.12h0.05   c0.51,0.01,1.02,0.02,1.52,0.04c2.07,0.06,4.1,0.17,6.07,0.32c0.56,0.04,1.1,0.08,1.64,0.13c0.74,0.07,1.47,0.14,2.19,0.22   c0.42,0.04,0.83,0.09,1.24,0.14c1.61,0.19,3.18,0.41,4.68,0.66c0.44,0.07,0.87,0.14,1.3,0.22c0.35,0.06,0.7,0.12,1.04,0.19   c0.26,0.05,0.52,0.1,0.78,0.16c0.09,0.02,0.17,0.03,0.25,0.05c0.85,0.17,1.67,0.35,2.47,0.54c0.46,0.11,0.92,0.22,1.37,0.34   c0.02,0.01,0.04,0.01,0.06,0.02c2.85,4.24,4.74,9.18,5.35,14.51c0.04,0.34,0.07,0.69,0.09,1.04C82.16,48.2,82.2,49.09,82.2,50z"/><path d="M76.64,31.76c-0.02-0.01-0.04-0.01-0.06-0.02l-0.14-0.27C76.51,31.57,76.58,31.67,76.64,31.76z"/><path d="M72.73,73c-3.09,3.12-6.81,5.62-10.95,7.29c-0.37,0.16-0.74,0.3-1.11,0.44c-3.47,1.25-7.22,1.94-11.13,1.94   c-3.91,0-7.66-0.69-11.13-1.94c-0.38-0.14-0.75-0.29-1.12-0.44c-4.14-1.67-7.86-4.17-10.94-7.29c0.01-0.07,0.03-0.15,0.05-0.23   c0.37-1.56,0.87-3.25,1.5-5.04c0.2-0.58,0.42-1.17,0.65-1.77c0.17-0.44,0.34-0.89,0.53-1.35c0.15-0.37,0.3-0.74,0.46-1.12   c0.09-0.22,0.19-0.45,0.28-0.68c0.2-0.45,0.4-0.9,0.6-1.35c0.46-1.02,0.94-2.07,1.47-3.13c0.17-0.35,0.34-0.7,0.52-1.05   c0.53-1.05,1.09-2.12,1.67-3.21c0.49-0.91,1.01-1.83,1.54-2.76c0.06-0.1,0.12-0.21,0.18-0.31c0.13-0.22,0.25-0.44,0.38-0.66   c0.07-0.11,0.13-0.22,0.2-0.34c1.2-2.04,2.5-4.11,3.87-6.18c0.38-0.57,0.75-1.12,1.14-1.68c1.03-1.5,2.08-2.97,3.13-4.38   c0.28-0.37,0.56-0.74,0.84-1.1c0.23-0.31,0.46-0.61,0.7-0.9c0.37-0.49,0.75-0.97,1.14-1.45c0.34-0.42,0.68-0.84,1.03-1.26   c0.43-0.53,0.87-1.06,1.31-1.57c1.39,1.63,2.78,3.36,4.17,5.18c0.28,0.36,0.56,0.73,0.84,1.1c1.05,1.41,2.1,2.88,3.13,4.38   c0.39,0.56,0.76,1.11,1.14,1.68c0.91,1.38,1.79,2.76,2.64,4.12c0.2,0.33,0.4,0.66,0.59,0.98c0.22,0.36,0.44,0.72,0.65,1.08   c0.06,0.12,0.13,0.23,0.2,0.34c0.12,0.22,0.25,0.44,0.38,0.66c0.06,0.1,0.12,0.21,0.18,0.31c1.8,3.14,3.39,6.22,4.75,9.15   c0.15,0.33,0.3,0.66,0.44,0.99c1.07,2.37,1.97,4.64,2.69,6.76c0.15,0.43,0.29,0.85,0.41,1.26c0.14,0.41,0.26,0.82,0.37,1.22   c0.12,0.39,0.22,0.78,0.33,1.15c0,0.01,0,0.02,0,0.02C72.55,72.25,72.64,72.63,72.73,73z"/><g><path d="M22.87,30.57v0.01c-8.78,2.21-14.26,5.52-14.26,9.28c0,2.83,3.1,5.41,8.38,7.44c0.02-0.35,0.05-0.69,0.09-1.03    c-4.68-1.83-7.47-4.04-7.47-6.41c0-3.13,4.9-6.01,12.64-8.05c0.06-0.02,0.12-0.04,0.18-0.05c0.3-0.44,0.61-0.88,0.93-1.31    C23.2,30.49,23.03,30.53,22.87,30.57z M75.95,30.51c-0.08-0.02-0.16-0.04-0.24-0.06c0.25,0.34,0.5,0.68,0.73,1.02l0.14,0.27    c0.02,0.01,0.04,0.01,0.06,0.02c7.85,2.05,12.83,4.95,12.83,8.1c0,2.37-2.79,4.58-7.48,6.41c0.04,0.34,0.07,0.69,0.09,1.04    c5.29-2.04,8.39-4.61,8.39-7.45C90.47,36.06,84.88,32.72,75.95,30.51z"/></g><g><path d="M26.04,29.85v0.01c0.15-0.04,0.31-0.07,0.46-0.1C26.35,29.79,26.19,29.82,26.04,29.85z M23.43,30.43    c0.84-0.21,1.71-0.4,2.61-0.57C25.14,30.04,24.28,30.23,23.43,30.43z"/></g><g><path d="M72.21,15.92c-2.47-1.64-6.6-0.29-11.53,3.36c0.01,0,0.01,0.01,0.02,0.01c0.27,0.1,0.54,0.2,0.8,0.31    c0.1,0.03,0.2,0.07,0.3,0.11c3.12-2.26,5.84-3.51,7.87-3.51c0.76,0,1.43,0.18,1.99,0.55c2.03,1.35,2.28,5.09,1.07,10.25    c0.29,0.29,0.57,0.58,0.84,0.88C75.03,21.91,74.69,17.57,72.21,15.92z M35.21,50c-0.04,0.07-0.09,0.15-0.13,0.22    c0.09,0.01,0.19,0.03,0.28,0.04C35.31,50.18,35.26,50.09,35.21,50z M37.29,80.29c-4.41,3.18-7.93,4.25-9.87,2.96    c-2.03-1.35-2.28-5.08-1.08-10.24c0,0,0,0,0.01-0.01c0.01-0.07,0.03-0.15,0.05-0.23c-0.02,0.08-0.04,0.16-0.06,0.23    c-0.16-0.15-0.31-0.3-0.45-0.46c-0.13-0.14-0.26-0.27-0.38-0.41l-0.01,0.01c-1.45,5.96-1.11,10.3,1.37,11.94    c0.7,0.47,1.53,0.7,2.49,0.7c2.36,0,5.44-1.38,9.05-4.05C38.03,80.59,37.66,80.44,37.29,80.29z"/></g><g><path d="M26.04,29.85v0.01c0.15-0.04,0.31-0.07,0.46-0.1C26.35,29.79,26.19,29.82,26.04,29.85z M73.57,72.13    c-0.27,0.29-0.55,0.59-0.84,0.87c1.21,5.16,0.96,8.9-1.07,10.25c-1.95,1.29-5.46,0.21-9.88-2.96c-0.37,0.16-0.74,0.3-1.11,0.44    c3.61,2.67,6.69,4.05,9.04,4.05c0.96,0,1.8-0.23,2.5-0.7C74.68,82.43,75.03,78.09,73.57,72.13z"/><path d="M38.4,19.28c-0.38,0.13-0.75,0.28-1.12,0.43c-3.12-2.26-5.84-3.51-7.87-3.51c-0.77,0-1.43,0.18-1.99,0.55    c-2.03,1.35-2.28,5.09-1.07,10.25c-0.3,0.29-0.58,0.58-0.84,0.88c-1.47-5.97-1.12-10.31,1.36-11.96    C29.34,14.28,33.47,15.63,38.4,19.28z"/></g><g><path d="M25.51,72.13c0.01-0.04,0.01-0.07,0.02-0.1c-0.01,0.03-0.02,0.06-0.03,0.09c0,0.01,0,0.01,0,0.02    c0.13,0.13,0.25,0.27,0.39,0.4C25.76,72.4,25.63,72.27,25.51,72.13z M32.41,57.28c0.53-1.05,1.09-2.12,1.67-3.21    C33.5,55.15,32.93,56.22,32.41,57.28z M35.21,50c-0.04,0.07-0.09,0.15-0.13,0.22c0.09,0.01,0.19,0.03,0.28,0.04    C35.31,50.18,35.26,50.09,35.21,50z"/></g></g><text x="0" y="115" fill="#000000" font-size="5px" font-weight="bold" font-family="'Helvetica Neue', Helvetica, Arial-Unicode, Arial, Sans-serif">Created by Anu Prasadh Raja</text><text x="0" y="120" fill="#000000" font-size="5px" font-weight="bold" font-family="'Helvetica Neue', Helvetica, Arial-Unicode, Arial, Sans-serif">from the Noun Project</text></svg>
