<svg xmlns="http://www.w3.org/2000/svg" xmlns:xlink="http://www.w3.org/1999/xlink" version="1.1" x="0px" y="0px" viewBox="0 0 100 125" style="enable-background:new 0 0 100 100;" xml:space="preserve"><path d="M72.3818741,37.0776634c-1.8313675-3.1724968-7.0522156-3.7400627-13.7745018-1.9865265  c-3.8558922-14.5556774-13.3898735-14.5131683-17.2257423,0.0374336C26.8415356,31.1290054,22.1264305,39.4607353,32.8393974,50  c-11.1742992,11.0740547-5.2274742,18.7792053,8.5422325,14.8712158  c3.8364334,14.5518723,13.3687248,14.5892334,17.2243309,0.042305c13.9123955,3.8698425,19.6522408-3.9293518,8.5546379-14.9134521  C70.9781418,46.4741745,74.5808105,40.1801567,72.3818741,37.0776634z M37.9647942,63.2590294  c-11.9019661,1.9282265-9.9552689-5.2470741-3.4596977-11.6600227c1.5968933,1.4531517,3.3889198,2.8800735,5.3357582,4.2494049  c0.2090912,2.4197998,0.5414162,4.6977615,0.9909019,6.7804489C39.8493118,62.884552,38.8854828,63.1059799,37.9647942,63.2590294z   M39.6465645,52.8561058c-1.242012-0.9348564-2.4008369-1.8902283-3.4698486-2.8563156  c1.0690117-0.9661598,2.2279778-1.9215317,3.4698486-2.8563881C39.567749,49.0059242,39.567749,50.9935112,39.6465645,52.8561058z   M39.8408546,44.1514473c-1.9465561,1.3692589-3.7385826,2.7963943-5.3354759,4.2494736  c-2.8136673-2.5227242-6.4507351-8.2037048-4.8862724-10.1682396c1.840107-2.7853241,7.9731827-1.7301292,11.2126503-0.8616829  C40.3822708,39.4537544,40.0499458,41.731575,39.8408546,44.1514473z M57.6551018,42.4714394  c-0.7992935-0.5077858-1.6124039-1.0072556-2.448494-1.4899483c-0.8301697-0.4793053-1.663723-0.9310493-2.4972763-1.366581  c1.4496956-0.614872,2.8635788-1.1610794,4.2004776-1.5919571C57.2084351,39.4089203,57.4615173,40.8921013,57.6551018,42.4714394z   M50,26.4653645c2.3001671,0,4.751339,3.4991055,6.3492203,9.2808971c-2.0274887,0.6520233-4.1652298,1.5030594-6.3641663,2.5312576  c-2.1580467-1.0007019-4.2885971-1.8389091-6.3444252-2.4950943C45.2380867,29.9788513,47.6950378,26.4653645,50,26.4653645z   M43.0887794,38.028595c1.3708801,0.4427872,2.7772903,0.9686966,4.2076683,1.5768013  c-0.8291817,0.4350357-1.663723,0.891571-2.5030556,1.3760948c-0.8360901,0.4826927-1.6490593,0.9821625-2.4483528,1.4899483  C42.5383415,40.8942871,42.7907219,39.4129372,43.0887794,38.028595z M42.3450394,57.5284195  c1.5844841,1.0157166,3.2950172,2.0001335,4.9595871,2.8630829c-1.4329147,0.6095161-2.842289,1.1365509-4.215847,1.5800438  C42.7907219,60.587204,42.5383415,59.1056442,42.3450394,57.5284195z M50,73.5340729  c-2.3049622,0-4.7619133-3.5133438-6.3593712-9.3167801c2.0572357-0.6566086,4.1894798-1.4953766,6.3490791-2.4969978  c2.1996384,1.0281982,4.3334351,1.874794,6.3613434,2.5264626C54.753315,70.0325012,52.3010139,73.5340729,50,73.5340729z   M56.9113617,61.970562c-1.3477592-0.433979-2.7565651-0.9559364-4.2189484-1.5770149  c1.6769753-0.868309,3.3722801-1.847084,4.9626884-2.8651276C57.4617996,59.1052895,57.2092781,60.5864258,56.9113617,61.970562z   M57.9359589,54.5861664c-2.4671021,1.6745796-5.2480583,3.2800713-7.9317284,4.5796089  c-2.645462-1.2746506-5.4892998-2.9127846-7.9401894-4.5796089c-0.2199516-2.9097519-0.2199516-6.2629318,0.0001411-9.1726837  c2.4524384-1.6712685,5.3012123-3.3055229,7.9535828-4.5720673c2.6792984,1.2977753,5.45504,2.9003067,7.9180527,4.5720673  C58.0408592,46.8842545,58.1031799,48.4106522,58.1031799,50C58.1031799,51.5892792,58.0408592,53.1155319,57.9359589,54.5861664z   M70.3808899,61.7673187c-1.1500778,1.9911804-5.4056854,2.3645325-11.2116585,0.8575935  c0.4490623-2.0815582,0.7809639-4.3582497,0.9899139-6.7765007c1.9468384-1.3693314,3.7388649-2.7961845,5.3357582-4.2493324  C68.3082886,54.1219444,71.9453583,59.802433,70.3808899,61.7673187z M60.3534355,47.1434021  c1.2418709,0.9348564,2.4008369,1.8902283,3.4698486,2.8563881c-1.0690117,0.9660873-2.2278366,1.9214592-3.4698486,2.8563156  C60.432251,50.9935112,60.432251,49.0059242,60.3534355,47.1434021z M65.4946213,48.4009209  c-1.5968933-1.4530792-3.3889198-2.8802147-5.3354759-4.2494736c-0.2092323-2.4212112-0.5418358-4.7002296-0.9917488-6.7839012  C71.0410233,34.2661819,74.7601547,38.9716988,65.4946213,48.4009209z M49.7868195,45.4329376  c-6.0356522,0.1916122-6.0342407,8.9434319,0,9.1341248C55.8224678,54.3754501,55.8210564,45.6236305,49.7868195,45.4329376z   M49.7868195,52.2570229c-2.9659424-0.053154-2.9656601-4.4613876,0-4.5140457  C52.752758,47.7960587,52.7524757,52.2042923,49.7868195,52.2570229z M76.4030075,18.1721268H23.5958633  c-2.9901886,0-5.4231739,2.433548-5.4231739,5.4243011v52.8071442c0,2.9907532,2.4329853,5.4237366,5.4231739,5.4237366h52.8071442  c2.9913177,0,5.4243011-2.4329834,5.4243011-5.4237366V23.5964279  C81.8273087,20.6056747,79.3943253,18.1721268,76.4030075,18.1721268z M79.5172729,76.4035721  c0,1.7167358-1.3975296,3.1137009-3.1142654,3.1137009H23.5958633c-1.7167358,0-3.1131363-1.396965-3.1131363-3.1137009V23.5964279  c0-1.7173004,1.3964005-3.1142635,3.1131363-3.1142635h52.8071442c1.7167358,0,3.1142654,1.3969631,3.1142654,3.1142635V76.4035721z   M98.3449783,27.1770992c0.6384201,0,1.1550217-0.5171642,1.1550217-1.1550179v-6.6949368  c0-0.6378536-0.5166016-1.1550179-1.1550217-1.1550179h-7.3824158c0.367569-5.1647339-3.9709396-9.5019054-9.1352539-9.1341238  V1.6550188c0-0.6378546-0.5166016-1.1550188-1.155014-1.1550188h-6.6943741c-0.6384201,0-1.1550217,0.5171642-1.1550217,1.1550188  V9.038003h-9.2119484V1.6550188C63.6109505,1.0171642,63.0943489,0.5,62.4559288,0.5h-6.6943703  c-0.6384201,0-1.1550179,0.5171642-1.1550179,1.1550188V9.038003h-9.2130814V1.6550188  C45.3934593,1.0171642,44.8768616,0.5,44.2384415,0.5h-6.6943703c-0.6384201,0-1.1550217,0.5171642-1.1550217,1.1550188V9.038003  h-9.2119503V1.6550188C27.1770992,1.0171642,26.6604996,0.5,26.0220814,0.5h-6.6943722  c-0.6384182,0-1.1550198,0.5171642-1.1550198,1.1550188V9.038003c-5.1645918-0.3677111-9.502821,3.9696016-9.135251,9.1341238  H1.6550188C1.0166003,18.1721268,0.5,18.689291,0.5,19.3271446v6.6949368c0,0.6378536,0.5166003,1.1550179,1.1550188,1.1550179  h7.3824196v9.2119503H1.6550188C1.0166003,36.3890495,0.5,36.9062157,0.5,37.5440712v6.6949348  c0,0.6378555,0.5166003,1.1550179,1.1550188,1.1550179h7.3824196v9.2119522H1.6550188  C1.0166003,54.6059761,0.5,55.1231384,0.5,55.760994v6.6949348c0,0.6378555,0.5166003,1.1550217,1.1550188,1.1550217h7.3824196  v9.2119484H1.6550188C1.0166003,72.8228989,0.5,73.340065,0.5,73.9779205v6.6943741  c0,0.6378479,0.5166003,1.155014,1.1550188,1.155014h7.3824196c-0.3677111,5.1648788,3.9706593,9.5024719,9.135251,9.1346893  v7.3829803c0,0.6378555,0.5166016,1.1550217,1.1550198,1.1550217h6.6943722c0.6384182,0,1.1550179-0.5171661,1.1550179-1.1550217  V90.961998h9.2119503v7.3829803c0,0.6378555,0.5166016,1.1550217,1.1550217,1.1550217h6.6943703  c0.6384201,0,1.1550179-0.5171661,1.1550179-1.1550217V90.961998h9.2130814v7.3829803  c0,0.6378555,0.5165977,1.1550217,1.1550179,1.1550217h6.6943703c0.6384201,0,1.1550217-0.5171661,1.1550217-1.1550217V90.961998  h9.2119484v7.3829803c0,0.6378555,0.5166016,1.1550217,1.1550217,1.1550217h6.6943741  c0.6384125,0,1.155014-0.5171661,1.155014-1.1550217V90.961998c5.1648788,0.3677139,9.5031052-3.9700241,9.1352539-9.1346893  h7.3824158c0.6384201,0,1.1550217-0.5171661,1.1550217-1.155014v-6.6943741c0-0.6378555-0.5166016-1.1550217-1.1550217-1.1550217  h-7.3824158v-9.2119484h7.3824158c0.6384201,0,1.1550217-0.5171661,1.1550217-1.1550217V55.760994  c0-0.6378555-0.5166016-1.1550179-1.1550217-1.1550179h-7.3824158v-9.2119522h7.3824158  c0.6384201,0,1.1550217-0.5171623,1.1550217-1.1550179v-6.6949348c0-0.6378555-0.5166016-1.1550217-1.1550217-1.1550217h-7.3824158  v-9.2119503H98.3449783z M90.9625626,20.4821644h6.2274017v4.3848972h-6.2274017V20.4821644z M9.0374384,79.5172729H2.8100376  v-4.3843384h6.2274008V79.5172729z M9.0374384,61.3009109H2.8100376v-4.3848991h6.2274008V61.3009109z M9.0374384,43.0839882  H2.8100376v-4.3848991h6.2274008V43.0839882z M9.0374384,24.8670616H2.8100376v-4.3848972h6.2274008V24.8670616z   M75.1329346,2.8100376h4.3843384V9.038003h-4.3843384V2.8100376z M56.9165764,2.8100376h4.3843346V9.038003h-4.3843346V2.8100376z   M38.6990891,2.8100376h4.3843346V9.038003h-4.3843346V2.8100376z M20.4827271,2.8100376h4.3843346V9.038003h-4.3843346V2.8100376z   M24.8670616,97.1899643h-4.3843346V90.961998h4.3843346V97.1899643z M43.0834236,97.1899643h-4.3843346V90.961998h4.3843346  V97.1899643z M61.3009109,97.1899643h-4.3843346V90.961998h4.3843346V97.1899643z M79.5172729,97.1899643h-4.3843384V90.961998  h4.3843384V97.1899643z M88.6525269,82.4995651c0,3.3923035-2.7600937,6.1523972-6.1529617,6.1523972H17.500433  c-3.392868,0-6.152957-2.7600937-6.152957-6.1523972V17.500433c0-3.3923035,2.7600889-6.1523924,6.152957-6.1523924h64.9991302  c3.392868,0,6.1529617,2.7600889,6.1529617,6.1523924V82.4995651z M97.1899643,75.1329346v4.3843384h-6.2274017v-4.3843384  H97.1899643z M97.1899643,56.9160118v4.3848991h-6.2274017v-4.3848991H97.1899643z M97.1899643,38.6990891v4.3848991h-6.2274017  v-4.3848991H97.1899643z"/><text x="0" y="115" fill="#000000" font-size="5px" font-weight="bold" font-family="'Helvetica Neue', Helvetica, Arial-Unicode, Arial, Sans-serif">Created by ahmadwil</text><text x="0" y="120" fill="#000000" font-size="5px" font-weight="bold" font-family="'Helvetica Neue', Helvetica, Arial-Unicode, Arial, Sans-serif">from the Noun Project</text></svg>