<?xml version="1.0" encoding="iso-8859-1"?>
<!-- Uploaded to: SVG Repo, www.svgrepo.com, Generator: SVG Repo Mixer Tools -->
<svg height="800px" width="800px" version="1.1" id="Layer_1" xmlns="http://www.w3.org/2000/svg" xmlns:xlink="http://www.w3.org/1999/xlink" 
	 viewBox="0 0 512.002 512.002" xml:space="preserve">
<path style="fill:#808080;" d="M408.146,168.157c15.519-67.393,6.868-115.953-24.144-133.863
	C353,16.404,306.62,33.19,256.007,80.317C205.4,33.181,159.02,16.394,127.996,34.297c-15.459,8.927-25.715,26.108-29.659,49.687
	l17.409,2.912c3.089-18.468,10.18-31.021,21.075-37.313c23.031-13.296,63.406,3.193,106.523,43.07
	c-16.614,16.92-32.812,36.322-48.277,57.819c-26.32,2.649-51.221,6.968-74.194,12.896c-2.969-13.095-5.003-25.568-6.032-37.16
	l-17.58,1.559c1.12,12.639,3.346,26.196,6.6,40.389C37.73,188.43,0,220.205,0,256.007c0,35.793,37.727,67.564,103.856,87.838
	c-15.507,67.394-6.858,115.953,24.144,133.864c8.013,4.623,17.173,6.928,27.258,6.928c12.429,0,26.258-3.503,41.057-10.485
	l-7.531-15.961c-14.881,7.021-35.974,13.456-51.959,4.235c-23.018-13.299-28.922-56.508-15.952-113.788
	c22.973,5.929,47.875,10.247,74.195,12.897c15.493,21.528,31.697,40.932,48.285,57.82c-7.006,6.489-14.023,12.444-20.94,17.756
	c-0.361,0.278-0.701,0.582-1.014,0.913l-0.012,0.012l6.434,6.116l5.343,6.956c7.564-5.809,15.224-12.33,22.844-19.424
	c37.332,34.77,72.358,53.031,100.615,53.029c10.049-0.001,19.245-2.31,27.382-7.005c31.009-17.908,39.659-66.465,24.144-133.852
	c19.14-5.875,36.134-12.819,50.61-20.685l-8.427-15.508c-13.241,7.194-28.865,13.589-46.532,19.061
	c-6.333-22.813-15.032-46.543-25.923-70.716c10.891-24.185,19.589-47.914,25.919-70.716c56.091,17.413,90.555,44.134,90.555,70.716
	c0,9.624-4.37,19.268-12.987,28.665l13.008,11.93c11.697-12.755,17.629-26.412,17.629-40.595
	C512,220.207,474.274,188.431,408.146,168.157z M375.178,49.579c23.027,13.299,28.931,56.506,15.953,113.787
	c-22.958-5.927-47.856-10.245-74.184-12.895C301.511,129,285.313,109.599,268.67,92.652
	C311.79,52.783,352.158,36.294,375.178,49.579z M256.006,407.046c-12.796-13.02-25.373-27.624-37.573-43.619
	c12.413,0.752,24.984,1.139,37.573,1.139c12.586,0,25.159-0.387,37.578-1.139C281.403,379.402,268.824,394.005,256.006,407.046z
	 M256.007,104.947c12.835,13.063,25.416,27.672,37.584,43.633c-24.852-1.498-50.33-1.498-75.163-0.001
	C230.612,132.6,243.192,117.993,256.007,104.947z M307.229,344.729c-33.578,2.888-68.908,2.886-102.447,0.001
	c-9.605-13.754-18.849-28.287-27.504-43.273c-8.579-14.838-16.541-30.112-23.718-45.45c7.169-15.324,15.132-30.6,23.72-45.465
	c8.685-15.04,17.929-29.571,27.5-43.268c33.541-2.885,68.871-2.888,102.451,0c9.556,13.676,18.803,28.206,27.509,43.266
	c8.641,14.975,16.602,30.251,23.712,45.468c-7.119,15.232-15.078,30.504-23.708,45.45
	C326.068,316.466,316.819,330.997,307.229,344.729z M161.998,201.713c-6.28,10.87-12.234,21.958-17.808,33.126
	c-7.748-18.561-14.112-36.759-19-54.359c17.712-4.576,36.653-8.158,56.563-10.724C174.935,180.074,168.32,190.764,161.998,201.713z
	 M144.188,277.17c5.579,11.177,11.532,22.262,17.808,33.117c6.307,10.923,12.924,21.614,19.762,31.96
	c-19.913-2.566-38.854-6.149-56.568-10.725C130.08,313.917,136.442,295.722,144.188,277.17z M350.028,310.287
	c6.301-10.91,12.251-21.992,17.799-33.109c7.748,18.558,14.107,36.751,18.987,54.344c-17.703,4.575-36.642,8.158-56.559,10.725
	C337.085,331.912,343.705,321.223,350.028,310.287z M350.026,201.711c-6.337-10.959-12.955-21.648-19.767-31.955
	c19.916,2.567,38.853,6.15,56.555,10.724c-4.878,17.59-11.237,35.785-18.988,54.353
	C362.282,223.724,356.331,212.638,350.026,201.711z M17.65,256.007c0-26.582,34.466-53.303,90.559-70.717
	c6.342,22.817,15.041,46.545,25.928,70.716c-10.884,24.157-19.583,47.882-25.929,70.706C52.114,309.299,17.65,282.583,17.65,256.007
	z M375.18,462.421c-23.025,13.29-63.391-3.204-106.509-43.08c16.614-16.913,32.814-36.312,48.275-57.809
	c26.328-2.65,51.226-6.969,74.185-12.895C404.109,405.915,398.205,449.125,375.18,462.421z"/>
<path style="fill:#F95428;" d="M492.972,286.16c4.275,4.853,6.865,11.234,6.865,18.208c0,15.259-12.373,27.632-27.632,27.632
	c-9.876,0-18.551-5.18-23.419-12.981c-2.684-4.244-4.212-9.267-4.212-14.651c0-15.259,12.373-27.632,27.632-27.632
	C480.49,276.736,487.917,280.387,492.972,286.16z"/>
<path style="fill:#2BA5F7;" d="M231.754,438.342c4.275,4.853,6.865,11.234,6.865,18.208c0,15.259-12.373,27.632-27.632,27.632
	c-9.876,0-18.551-5.18-23.419-12.981c-2.684-4.244-4.212-9.267-4.212-14.651c0-15.259,12.373-27.632,27.632-27.632
	C219.272,428.918,226.699,432.568,231.754,438.342z"/>
<path style="fill:#F7B239;" d="M125.07,88.481c4.275,4.853,6.865,11.234,6.865,18.208c0,15.259-12.373,27.632-27.632,27.632
	c-9.876,0-18.551-5.18-23.419-12.981c-2.684-4.244-4.212-9.267-4.212-14.651c0-15.259,12.373-27.632,27.632-27.632
	C112.589,79.057,120.015,82.708,125.07,88.481z"/>
</svg>