<?xml version="1.0" standalone="no"?>
<!DOCTYPE svg PUBLIC "-//W3C//DTD SVG 20010904//EN"
 "http://www.w3.org/TR/2001/REC-SVG-20010904/DTD/svg10.dtd">
<svg version="1.0" xmlns="http://www.w3.org/2000/svg"
 width="512.000000pt" height="512.000000pt" viewBox="0 0 512.000000 512.000000"
 preserveAspectRatio="xMidYMid meet">

<g transform="translate(0.000000,512.000000) scale(0.100000,-0.100000)"
fill="#000000" stroke="none">
<path d="M135 5105 c-53 -19 -111 -82 -125 -136 -7 -25 -10 -83 -8 -135 3 -79
8 -97 31 -133 15 -22 46 -53 69 -68 40 -27 47 -28 190 -31 l148 -4 0 -548 0
-548 -54 -4 c-74 -6 -128 -44 -162 -114 -24 -48 -26 -62 -22 -152 3 -89 6
-103 33 -147 21 -35 45 -56 80 -74 49 -26 52 -26 322 -29 l273 -3 0 -445 0
-444 -111 0 c-138 0 -182 -12 -236 -66 -50 -50 -63 -91 -63 -202 0 -92 15
-140 58 -186 52 -55 91 -66 255 -66 l147 0 0 -760 0 -761 25 -24 c13 -14 36
-25 50 -25 14 0 37 11 50 25 25 24 25 24 25 235 l0 210 100 0 c89 0 101 2 120
22 25 27 26 69 1 99 -17 22 -28 24 -120 27 l-101 4 0 104 0 104 35 0 c42 0 90
22 99 45 23 62 -11 105 -84 105 l-50 0 0 110 0 110 95 0 c88 0 98 2 120 25 32
31 33 74 2 103 -21 19 -34 22 -120 22 l-97 0 0 110 0 110 255 0 255 0 0 -220
c0 -207 1 -221 20 -240 30 -30 83 -27 109 6 20 25 21 39 21 240 l0 214 195 0
195 0 0 -764 0 -765 26 -20 c43 -34 86 -26 109 20 12 22 15 72 15 229 l0 200
99 0 c96 0 100 1 120 26 28 36 26 60 -8 95 -28 28 -33 29 -120 29 l-91 0 0
104 0 103 47 6 c35 4 53 12 70 32 28 32 29 55 2 89 -17 22 -28 26 -70 26 l-49
0 0 110 0 110 85 0 c46 0 95 5 109 11 51 23 55 103 7 128 -11 6 -60 11 -110
11 l-91 0 0 110 0 110 250 0 250 0 0 -750 c0 -640 2 -755 15 -779 23 -46 66
-54 109 -20 l26 20 0 765 0 764 195 0 195 0 0 -760 0 -761 25 -24 c30 -30 64
-32 99 -4 l26 20 0 215 0 214 100 0 c115 0 140 13 140 73 0 57 -26 71 -141 75
l-99 4 0 103 0 102 52 5 c58 6 88 32 88 77 0 46 -22 65 -81 71 l-54 5 -3 108
-3 107 94 0 c80 0 98 3 121 21 34 27 36 77 3 107 -21 19 -34 22 -120 22 l-97
0 0 110 0 110 255 0 255 0 0 -760 0 -761 25 -24 c31 -32 69 -32 100 0 l25 24
0 761 0 760 148 0 c163 0 202 11 254 66 43 46 58 94 58 186 0 111 -13 152 -63
202 -54 54 -98 66 -236 66 l-111 0 0 145 c0 132 -2 147 -20 165 -30 30 -83 27
-109 -6 -19 -24 -21 -40 -21 -165 l0 -139 -110 0 -110 0 0 445 0 445 110 0
110 0 0 -174 c0 -167 1 -176 23 -200 32 -36 74 -39 107 -6 19 19 20 33 20 199
l0 180 273 3 c270 3 273 3 322 29 35 18 59 39 80 74 27 44 30 58 33 147 4 90
2 104 -22 152 -34 70 -88 108 -162 114 l-54 4 0 548 0 548 148 4 c143 3 150 4
190 31 23 15 54 46 69 68 23 36 28 54 31 133 2 53 -1 110 -8 136 -15 57 -80
124 -135 139 -43 12 -4089 17 -4120 5 -8 -4 -23 -20 -31 -36 -13 -25 -13 -35
-3 -59 6 -17 20 -34 30 -39 11 -6 767 -10 2048 -10 2018 0 2031 0 2051 -20 16
-16 20 -33 20 -90 0 -57 -4 -74 -20 -90 -20 -20 -33 -20 -2390 -20 -2357 0
-2370 0 -2390 20 -16 16 -20 33 -20 90 0 112 -4 110 249 110 196 0 210 1 235
21 36 28 36 80 0 108 -25 20 -39 21 -243 21 -160 -1 -226 -5 -256 -15z m675
-1055 l0 -551 -107 3 -108 3 -3 548 -2 547 110 0 110 0 0 -550z m560 385 l0
-165 -202 2 -203 3 -3 163 -2 162 205 0 205 0 0 -165z m370 -385 l0 -551 -107
3 -108 3 -3 548 -2 547 110 0 110 0 0 -550z m560 385 l0 -165 -205 0 -205 0 0
165 0 165 205 0 205 0 0 -165z m370 -385 l0 -550 -110 0 -110 0 0 550 0 550
110 0 110 0 0 -550z m560 385 l0 -165 -205 0 -205 0 0 165 0 165 205 0 205 0
0 -165z m368 -382 l-3 -548 -107 -3 -108 -3 0 551 0 550 110 0 110 0 -2 -547z
m560 385 l-3 -163 -202 -3 -203 -2 0 165 0 165 205 0 205 0 -2 -162z m370
-385 l-3 -548 -107 -3 -108 -3 0 551 0 550 110 0 110 0 -2 -547z m-3158 -3 l0
-70 -205 0 -205 0 0 70 0 70 205 0 205 0 0 -70z m930 0 l0 -70 -205 0 -205 0
0 70 0 70 205 0 205 0 0 -70z m930 0 l0 -70 -205 0 -205 0 0 70 0 70 205 0
205 0 0 -70z m930 0 l0 -70 -205 0 -205 0 0 70 0 70 205 0 205 0 0 -70z
m-2790 -385 l0 -165 -205 0 -205 0 0 165 0 165 205 0 205 0 0 -165z m930 0 l0
-165 -205 0 -205 0 0 165 0 165 205 0 205 0 0 -165z m930 0 l0 -165 -205 0
-205 0 0 165 0 165 205 0 205 0 0 -165z m930 0 l0 -165 -205 0 -205 0 0 165 0
165 205 0 205 0 0 -165z m592 -332 c28 -25 26 -153 -3 -179 -21 -19 -71 -19
-2189 -19 -2118 0 -2168 0 -2189 19 -18 16 -21 31 -21 89 0 52 4 75 17 89 15
17 97 18 2191 18 2010 0 2177 -1 2194 -17z m-3472 -798 l0 -445 -110 0 -110 0
0 445 0 445 110 0 110 0 0 -445z m560 335 l0 -110 -205 0 -205 0 0 110 0 110
205 0 205 0 0 -110z m360 -335 l0 -445 -105 0 -105 0 0 445 0 445 105 0 105 0
0 -445z m570 335 l0 -110 -210 0 -210 0 0 110 0 110 210 0 210 0 0 -110z m360
-335 l0 -445 -105 0 -105 0 0 445 0 445 105 0 105 0 0 -445z m560 335 l0 -110
-205 0 -205 0 0 110 0 110 205 0 205 0 0 -110z m-1852 -332 l-3 -73 -202 -3
-203 -2 0 75 0 75 205 0 206 0 -3 -72z m930 0 l-3 -73 -205 0 -205 0 -3 73 -3
72 211 0 211 0 -3 -72z m922 -3 l0 -75 -202 2 -203 3 -3 73 -3 72 206 0 205 0
0 -75z m-1850 -335 l0 -110 -205 0 -205 0 0 110 0 110 205 0 205 0 0 -110z
m930 0 l0 -110 -210 0 -210 0 0 110 0 110 210 0 210 0 0 -110z m920 0 l0 -110
-205 0 -205 0 0 110 0 110 205 0 205 0 0 -110z m760 -280 c26 -26 29 -143 4
-178 l-15 -22 -1879 0 -1879 0 -15 22 c-25 35 -22 152 4 178 20 20 33 20 1890
20 1857 0 1870 0 1890 -20z"/>
<path d="M1663 930 c-12 -5 -26 -18 -32 -29 -7 -13 -11 -162 -11 -440 l0 -420
26 -20 c33 -26 65 -27 95 -2 l24 19 3 420 3 420 -23 25 c-27 30 -55 39 -85 27z"/>
</g>
</svg>
