<svg xmlns="http://www.w3.org/2000/svg" data-name="Layer 1" viewBox="0 0 100 125" x="0px" y="0px"><path d="m54.65,41.129v-1.753c0-.727-.59-1.317-1.317-1.317s-1.317.59-1.317,1.317v1.753h-1.505v-1.753c0-.727-.59-1.317-1.317-1.317s-1.317.59-1.317,1.317v1.753h-1.5v-1.753c0-.727-.59-1.317-1.317-1.317s-1.317.59-1.317,1.317v1.753h-2.103c-.727,0-1.317.59-1.317,1.317v2.103h-1.753c-.727,0-1.317.59-1.317,1.317s.59,1.317,1.317,1.317h1.753v1.5h-1.753c-.727,0-1.317.59-1.317,1.317s.59,1.317,1.317,1.317h1.753v1.5h-1.753c-.727,0-1.317.59-1.317,1.317s.59,1.317,1.317,1.317h1.753v2.103c0,.727.59,1.317,1.317,1.317h2.103v1.753c0,.727.59,1.317,1.317,1.317s1.317-.59,1.317-1.317v-1.753h1.5v1.753c0,.727.59,1.317,1.317,1.317s1.317-.59,1.317-1.317v-1.753h1.505v1.753c0,.727.59,1.317,1.317,1.317s1.317-.59,1.317-1.317v-1.753h2.103c.727,0,1.317-.59,1.317-1.317v-2.103h1.749c.727,0,1.317-.59,1.317-1.317s-.59-1.317-1.317-1.317h-1.749v-1.5h1.749c.727,0,1.317-.59,1.317-1.317s-.59-1.317-1.317-1.317h-1.749v-1.5h1.749c.727,0,1.317-.59,1.317-1.317s-.59-1.317-1.317-1.317h-1.749v-2.103c0-.727-.59-1.317-1.317-1.317h-2.103Zm.787,15.108h-12.479v-12.474h12.479v12.474Zm-2.794-11.002h-6.891c-.727,0-1.317.59-1.317,1.317v6.891c0,.727.59,1.317,1.317,1.317h6.891c.727,0,1.317-.59,1.317-1.317v-6.891c0-.727-.59-1.317-1.317-1.317Zm-1.317,6.891h-4.258v-4.258h4.258v4.258Zm29.937-4.174c2.962,0,5.371-2.41,5.371-5.371,0-1.75-.841-3.306-2.14-4.287.874-3.175.653-6.026-.659-8.292-2.489-4.31-8.51-6.126-16.955-5.111-1.144.137-2.317.326-3.512.561-.394-1.152-.817-2.261-1.27-3.32-3.343-7.82-7.926-12.127-12.904-12.127s-9.559,4.307-12.903,12.127c-.453,1.059-.875,2.168-1.269,3.319-1.019-.2-2.021-.364-3.004-.493-.11-.592-.321-1.168-.631-1.705-.715-1.242-1.873-2.131-3.259-2.503-1.386-.372-2.834-.181-4.074.536-1.243.717-2.132,1.876-2.503,3.261-.065.245-.113.491-.143.738-3.186.832-5.544,2.449-6.85,4.718-2.489,4.31-1.051,10.432,4.05,17.238.691.922,1.44,1.843,2.241,2.76-.8.917-1.55,1.838-2.241,2.76-5.101,6.806-6.54,12.928-4.051,17.238,2.036,3.529,6.44,5.385,12.605,5.385,1.365,0,2.818-.091,4.349-.275,1.143-.137,2.316-.326,3.51-.561.394,1.152.817,2.263,1.27,3.322,3.343,7.82,7.926,12.127,12.903,12.127,2.621,0,5.201-1.235,7.514-3.577.665.281,1.383.43,2.108.43.909,0,1.829-.23,2.671-.715,2.565-1.479,3.449-4.77,1.972-7.336h0c-.311-.54-.705-1.012-1.165-1.405.379-.916.738-1.865,1.074-2.847,1.195.235,2.367.423,3.511.561,1.531.184,2.983.275,4.348.275,6.164,0,10.569-1.856,12.607-5.384,2.49-4.311,1.051-10.433-4.051-17.239-.69-.921-1.439-1.841-2.239-2.758.683-.783,1.327-1.569,1.931-2.356.559.198,1.161.307,1.787.307Zm0-2.633c-1.507,0-2.733-1.228-2.733-2.738s1.226-2.738,2.733-2.738,2.738,1.228,2.738,2.738-1.228,2.738-2.738,2.738Zm-42.549-22.153c2.861-6.691,6.681-10.529,10.481-10.529s7.623,3.838,10.483,10.529c.391.915.759,1.869,1.104,2.858-3.727.918-7.635,2.266-11.582,3.992-3.952-1.73-7.86-3.077-11.59-3.994.345-.988.713-1.942,1.104-2.856Zm25.7,26.834c0,2.921-.138,5.785-.407,8.553-2.263,1.616-4.673,3.167-7.202,4.626-2.525,1.458-5.074,2.769-7.609,3.92-2.535-1.152-5.085-2.462-7.61-3.92-2.525-1.458-4.936-3.01-7.2-4.629-.27-2.771-.409-5.634-.409-8.55s.139-5.779.409-8.55c2.265-1.619,4.675-3.171,7.2-4.629,2.527-1.459,5.078-2.771,7.614-3.923,2.53,1.151,5.078,2.463,7.605,3.923,2.525,1.457,4.935,3.009,7.2,4.628.27,2.771.409,5.635.409,8.551Zm2.408-6.444c2.656,2.08,5.063,4.247,7.161,6.447-2.096,2.2-4.503,4.364-7.16,6.444.148-2.11.225-4.264.225-6.447s-.077-4.333-.225-6.444Zm-3.232,18.489c-.473,3.339-1.144,6.503-2,9.416-2.953-.716-6.031-1.717-9.16-2.976,1.902-.927,3.804-1.936,5.691-3.025,1.89-1.091,3.716-2.233,5.469-3.415Zm-17.629,6.441c-3.128,1.259-6.205,2.259-9.158,2.975-.856-2.914-1.528-6.079-2.002-9.417,1.754,1.184,3.58,2.327,5.467,3.416,1.888,1.089,3.79,2.099,5.692,3.026Zm-14.393-12.043c-2.654-2.079-5.059-4.244-7.154-6.442,2.096-2.198,4.501-4.363,7.154-6.442-.148,2.111-.225,4.263-.225,6.442s.077,4.331.225,6.442Zm3.234-18.486c.474-3.34,1.147-6.507,2.003-9.422,2.953.715,6.031,1.717,9.16,2.977-1.904.928-3.808,1.938-5.697,3.029-1.887,1.09-3.713,2.232-5.467,3.416Zm23.319-3.416c-1.889-1.091-3.79-2.101-5.69-3.028,3.127-1.259,6.204-2.259,9.156-2.975.856,2.915,1.528,6.08,2.001,9.418-1.754-1.183-3.58-2.326-5.467-3.415Zm-34.025-9.314c.189-.706.642-1.296,1.277-1.662.42-.243.887-.367,1.36-.367.238,0,.478.031.714.095.706.189,1.296.642,1.659,1.273h0c.366.635.464,1.374.275,2.079-.189.706-.642,1.296-1.277,1.662-.633.366-1.371.463-2.077.273-.705-.189-1.292-.641-1.656-1.275-.366-.634-.464-1.373-.275-2.078Zm-3.379,20.434c-4.365-5.823-5.778-11.051-3.876-14.344.918-1.596,2.568-2.735,4.907-3.399.096.24.209.474.34.702.714,1.243,1.87,2.132,3.255,2.504.464.125.935.186,1.402.186.931,0,1.849-.244,2.676-.722,1.164-.671,2.017-1.729,2.426-2.997.78.106,1.573.235,2.378.387-1.07,3.689-1.856,7.748-2.335,12.032-3.47,2.556-6.591,5.267-9.251,8.037-.684-.794-1.326-1.59-1.923-2.386Zm10.481,26.832c-7.225.869-12.459-.52-14.358-3.812-1.901-3.291-.488-8.519,3.877-14.342.597-.796,1.239-1.592,1.923-2.386,2.659,2.77,5.781,5.481,9.251,8.037.479,4.283,1.265,8.342,2.335,12.03-1.029.195-2.04.354-3.027.472Zm28.977,11.359c-1.306.752-2.982.303-3.736-1.001-.755-1.308-.306-2.986,1.002-3.74.421-.244.889-.368,1.363-.368.238,0,.477.031.713.094.706.189,1.296.642,1.662,1.275.753,1.308.302,2.986-1.004,3.74Zm-.247-7.623c-1.303-.279-2.644-.069-3.804.602-2.564,1.48-3.446,4.771-1.966,7.338.132.228.279.442.438.642-1.745,1.692-3.558,2.551-5.4,2.551-3.8,0-7.62-3.838-10.481-10.529-.391-.915-.76-1.87-1.105-2.86,3.729-.918,7.638-2.267,11.587-3.994,3.949,1.727,7.858,3.075,11.586,3.993-.271.774-.556,1.526-.855,2.255Zm17.75-21.889c4.365,5.823,5.779,11.051,3.878,14.342-1.53,2.648-5.217,4.065-10.364,4.065-1.249,0-2.586-.084-3.997-.253-.988-.119-1.998-.277-3.028-.473,1.07-3.686,1.857-7.74,2.335-12.026,3.475-2.558,6.595-5.268,9.254-8.039.683.793,1.325,1.589,1.922,2.384Zm-11.178-14.331c-.479-4.283-1.265-8.342-2.334-12.03,1.03-.196,2.041-.354,3.029-.473,7.226-.868,12.459.522,14.361,3.815.922,1.593,1.084,3.59.489,5.948-.255-.037-.516-.058-.782-.058-2.959,0-5.367,2.41-5.367,5.371,0,1.383.525,2.645,1.385,3.598-.482.624-.991,1.247-1.526,1.868-2.66-2.771-5.784-5.482-9.255-8.039Z"/><text x="0" y="115" fill="#000000" font-size="5px" font-weight="bold" font-family="'Helvetica Neue', Helvetica, Arial-Unicode, Arial, Sans-serif">Created by pojok_icon</text><text x="0" y="120" fill="#000000" font-size="5px" font-weight="bold" font-family="'Helvetica Neue', Helvetica, Arial-Unicode, Arial, Sans-serif">from the Noun Project</text></svg>