<svg xmlns="http://www.w3.org/2000/svg" xmlns:xlink="http://www.w3.org/1999/xlink" version="1.1" x="0px" y="0px" viewBox="0 0 50 62.5" enable-background="new 0 0 50 50" xml:space="preserve"><path d="M43.016,24.09c0.794,0,1.44-0.646,1.44-1.44v-0.675h4.043c0.276,0,0.5-0.224,0.5-0.5s-0.224-0.5-0.5-0.5h-4.043v-0.674  c0-0.794-0.646-1.44-1.44-1.44h-1.026v-1.819h1.026c0.794,0,1.44-0.646,1.44-1.44v-0.675h4.043c0.276,0,0.5-0.224,0.5-0.5  s-0.224-0.5-0.5-0.5h-4.043v-0.675c0-0.794-0.646-1.44-1.44-1.44h-1.026v-1.419c0-1.313-1.067-2.38-2.38-2.38h-1.42V6.984  c0-0.794-0.646-1.44-1.44-1.44h-0.675V1.501c0-0.276-0.224-0.5-0.5-0.5s-0.5,0.224-0.5,0.5v4.043H34.4  c-0.794,0-1.44,0.646-1.44,1.44v1.027h-1.82V6.984c0-0.794-0.646-1.44-1.439-1.44h-0.675V1.501c0-0.276-0.224-0.5-0.5-0.5  s-0.5,0.224-0.5,0.5v4.043H27.35c-0.794,0-1.439,0.646-1.439,1.44v1.027h-1.82V6.984c0-0.794-0.646-1.44-1.44-1.44h-0.675V1.501  c0-0.276-0.224-0.5-0.5-0.5s-0.5,0.224-0.5,0.5v4.043h-0.674c-0.794,0-1.44,0.646-1.44,1.44v1.027h-1.819V6.984  c0-0.794-0.646-1.44-1.44-1.44h-0.675V1.501c0-0.276-0.224-0.5-0.5-0.5s-0.5,0.224-0.5,0.5v4.043h-0.675  c-0.794,0-1.44,0.646-1.44,1.44v1.027h-1.42c-1.313,0-2.38,1.067-2.38,2.38v1.419H6.984c-0.794,0-1.44,0.646-1.44,1.44v0.675H1.501  c-0.276,0-0.5,0.224-0.5,0.5s0.224,0.5,0.5,0.5h4.043V15.6c0,0.794,0.646,1.44,1.44,1.44h1.026v1.819H6.984  c-0.794,0-1.44,0.646-1.44,1.44v0.675H1.501c-0.276,0-0.5,0.224-0.5,0.5s0.224,0.5,0.5,0.5h4.043v0.675  c0,0.794,0.646,1.44,1.44,1.44h1.026v1.82H6.984c-0.794,0-1.44,0.646-1.44,1.439v0.676H1.501c-0.276,0-0.5,0.224-0.5,0.5  s0.224,0.5,0.5,0.5h4.043v0.674c0,0.794,0.646,1.439,1.44,1.439h1.026v1.82H6.984c-0.794,0-1.44,0.646-1.44,1.44v0.675H1.501  c-0.276,0-0.5,0.224-0.5,0.5s0.224,0.5,0.5,0.5h4.043v0.675c0,0.794,0.646,1.44,1.44,1.44h1.026v1.419c0,1.313,1.067,2.38,2.38,2.38  h1.42v1.027c0,0.794,0.646,1.44,1.44,1.44h0.675v4.043c0,0.276,0.224,0.5,0.5,0.5s0.5-0.224,0.5-0.5v-4.043H15.6  c0.794,0,1.44-0.646,1.44-1.44v-1.027h1.819v1.027c0,0.794,0.646,1.44,1.44,1.44h0.675v4.043c0,0.276,0.224,0.5,0.5,0.5  s0.5-0.224,0.5-0.5v-4.043h0.675c0.794,0,1.44-0.646,1.44-1.44v-1.027h1.82v1.027c0,0.794,0.646,1.44,1.439,1.44h0.676v4.043  c0,0.276,0.224,0.5,0.5,0.5s0.5-0.224,0.5-0.5v-4.043h0.674c0.794,0,1.439-0.646,1.439-1.44v-1.027h1.82v1.027  c0,0.794,0.646,1.44,1.44,1.44h0.675v4.043c0,0.276,0.224,0.5,0.5,0.5s0.5-0.224,0.5-0.5v-4.043h0.675c0.794,0,1.44-0.646,1.44-1.44  v-1.027h1.42c1.313,0,2.38-1.067,2.38-2.38v-1.419h1.026c0.794,0,1.44-0.646,1.44-1.44v-0.675h4.043c0.276,0,0.5-0.224,0.5-0.5  s-0.224-0.5-0.5-0.5h-4.043V34.4c0-0.794-0.646-1.44-1.44-1.44h-1.026v-1.82h1.026c0.794,0,1.44-0.646,1.44-1.439v-0.675h4.043  c0.276,0,0.5-0.224,0.5-0.5s-0.224-0.5-0.5-0.5h-4.043V27.35c0-0.794-0.646-1.439-1.44-1.439h-1.026v-1.82H43.016z M43.016,19.86  c0.243,0,0.44,0.198,0.44,0.44v2.349c0,0.243-0.197,0.44-0.44,0.44h-1.026V19.86H43.016z M43.016,12.811  c0.243,0,0.44,0.198,0.44,0.44v2.35c0,0.243-0.197,0.44-0.44,0.44h-1.026v-3.23H43.016z M33.96,6.984c0-0.243,0.197-0.44,0.44-0.44  h2.349c0.243,0,0.44,0.197,0.44,0.44v1.027H33.96V6.984z M26.91,6.984c0-0.243,0.197-0.44,0.439-0.44H29.7  c0.242,0,0.439,0.197,0.439,0.44v1.027H26.91V6.984z M19.86,6.984c0-0.243,0.198-0.44,0.44-0.44h2.349c0.243,0,0.44,0.197,0.44,0.44  v1.027H19.86V6.984z M12.811,6.984c0-0.243,0.198-0.44,0.44-0.44h2.35c0.243,0,0.44,0.197,0.44,0.44v1.027h-3.23V6.984z   M6.984,16.04c-0.243,0-0.44-0.198-0.44-0.44v-2.349c0-0.243,0.197-0.44,0.44-0.44h1.026v3.229H6.984z M6.984,23.09  c-0.243,0-0.44-0.198-0.44-0.44V20.3c0-0.243,0.197-0.44,0.44-0.44h1.026v3.23H6.984z M6.984,30.139c-0.243,0-0.44-0.197-0.44-0.439  v-2.35c0-0.242,0.197-0.439,0.44-0.439h1.026v3.229H6.984z M6.984,37.189c-0.243,0-0.44-0.197-0.44-0.44v-2.35  c0-0.243,0.197-0.44,0.44-0.44h1.026v3.23H6.984z M16.04,43.016c0,0.243-0.198,0.44-0.44,0.44h-2.349c-0.243,0-0.44-0.197-0.44-0.44  v-1.027h3.229V43.016z M23.09,43.016c0,0.243-0.198,0.44-0.44,0.44H20.3c-0.243,0-0.44-0.197-0.44-0.44v-1.027h3.23V43.016z   M30.139,43.016c0,0.243-0.197,0.44-0.439,0.44h-2.35c-0.242,0-0.439-0.197-0.439-0.44v-1.027h3.229V43.016z M37.189,43.016  c0,0.243-0.197,0.44-0.44,0.44h-2.35c-0.243,0-0.44-0.197-0.44-0.44v-1.027h3.23V43.016z M40.989,39.608  c0,0.761-0.619,1.38-1.38,1.38H10.391c-0.761,0-1.38-0.619-1.38-1.38v-1.917c0,0,0-0.001,0-0.002s0-0.002,0-0.002v-4.227  c0,0,0-0.001,0-0.002s0-0.002,0-0.002v-2.816c0,0,0-0.001,0-0.002s0-0.002,0-0.002v-4.225c0,0,0-0.001,0-0.002s0-0.002,0-0.002  v-2.816c0-0.001,0-0.001,0-0.002s0-0.001,0-0.002v-4.226c0-0.001,0-0.001,0-0.002s0-0.001,0-0.002v-2.814c0-0.001,0-0.001,0-0.002  s0-0.001,0-0.002v-4.225c0-0.001,0-0.001,0-0.002s0-0.001,0-0.002v-1.917c0-0.761,0.619-1.38,1.38-1.38h29.219  c0.761,0,1.38,0.619,1.38,1.38V39.608z M43.016,33.96c0.243,0,0.44,0.197,0.44,0.44v2.349c0,0.243-0.197,0.44-0.44,0.44h-1.026  V33.96H43.016z M43.016,26.91c0.243,0,0.44,0.197,0.44,0.439V29.7c0,0.242-0.197,0.439-0.44,0.439h-1.026V26.91H43.016z"/><path d="M34.549,21.046c0.83-2.324,0.72-4.178-0.349-5.246c-0.6-0.6-1.439-0.904-2.495-0.904c-0.821,0-1.756,0.208-2.748,0.563  c-1.027-2.156-2.41-3.469-3.957-3.469c-1.547,0-2.93,1.313-3.957,3.469c-0.992-0.354-1.927-0.563-2.748-0.563  c-1.056,0-1.896,0.304-2.495,0.904c-1.068,1.068-1.179,2.922-0.349,5.246c-2.152,1.027-3.463,2.408-3.463,3.954  s1.311,2.928,3.463,3.954c-0.831,2.324-0.72,4.179,0.348,5.246c0.6,0.6,1.439,0.904,2.495,0.904c0.821,0,1.756-0.208,2.748-0.563  c1.027,2.156,2.41,3.47,3.958,3.47c1.547,0,2.93-1.313,3.957-3.47c0.992,0.354,1.927,0.563,2.748,0.563  c1.056,0,1.896-0.305,2.495-0.904c1.068-1.067,1.179-2.922,0.349-5.246c2.152-1.027,3.463-2.408,3.463-3.954  C38.012,23.455,36.701,22.073,34.549,21.046z M31.705,15.896c0.781,0,1.383,0.206,1.788,0.611c0.761,0.761,0.801,2.256,0.139,4.143  c-0.988-0.385-2.109-0.705-3.339-0.943c-0.237-1.228-0.557-2.347-0.941-3.334C30.211,16.069,31.012,15.896,31.705,15.896z   M29.778,25c0,0.674-0.028,1.319-0.069,1.949c-0.423,0.482-0.862,0.962-1.33,1.43c-0.467,0.467-0.946,0.908-1.432,1.33  c-0.63,0.041-1.274,0.069-1.947,0.069s-1.318-0.028-1.947-0.069c-0.485-0.422-0.965-0.863-1.432-1.33  c-0.468-0.468-0.908-0.946-1.33-1.43c-0.041-0.63-0.069-1.275-0.069-1.949s0.028-1.319,0.069-1.95  c0.422-0.483,0.862-0.961,1.33-1.429c0.467-0.467,0.947-0.908,1.432-1.33c0.63-0.041,1.274-0.069,1.947-0.069  s1.317,0.028,1.947,0.069c0.485,0.422,0.965,0.863,1.432,1.33c0.468,0.468,0.907,0.947,1.33,1.43  C29.75,23.681,29.778,24.326,29.778,25z M29.086,20.914c-0.164-0.164-0.335-0.312-0.501-0.471c0.289,0.037,0.569,0.08,0.847,0.125  c0.044,0.273,0.087,0.549,0.123,0.834C29.398,21.24,29.247,21.075,29.086,20.914z M27.34,19.316  c-0.485-0.414-0.974-0.801-1.464-1.165c0.872-0.569,1.731-1.045,2.552-1.41c0.318,0.816,0.593,1.75,0.812,2.788  C28.626,19.438,27.993,19.367,27.34,19.316z M25.661,19.236c-0.22-0.004-0.438-0.014-0.661-0.014s-0.441,0.01-0.662,0.014  c0.22-0.169,0.441-0.319,0.662-0.477C25.221,18.917,25.441,19.067,25.661,19.236z M22.66,19.316  c-0.653,0.051-1.286,0.122-1.898,0.213c0.218-1.038,0.493-1.972,0.811-2.788c0.82,0.365,1.679,0.841,2.552,1.411  C23.634,18.516,23.146,18.903,22.66,19.316z M21.416,20.444c-0.167,0.159-0.337,0.306-0.501,0.47  c-0.161,0.161-0.313,0.326-0.469,0.489c0.036-0.285,0.079-0.561,0.123-0.834C20.846,20.523,21.126,20.48,21.416,20.444z   M19.317,22.644c-0.419,0.491-0.81,0.986-1.178,1.484c-0.564-0.865-1.034-1.722-1.402-2.554c0.818-0.319,1.752-0.594,2.792-0.813  C19.439,21.369,19.368,21.997,19.317,22.644z M19.236,24.323c-0.005,0.226-0.015,0.448-0.015,0.677s0.01,0.451,0.015,0.676  c-0.174-0.225-0.337-0.451-0.5-0.676C18.899,24.774,19.063,24.548,19.236,24.323z M19.317,27.356  c0.051,0.647,0.122,1.274,0.212,1.883c-1.04-0.219-1.975-0.494-2.792-0.813c0.368-0.832,0.838-1.689,1.401-2.554  C18.508,26.37,18.898,26.865,19.317,27.356z M20.445,28.597c0.156,0.163,0.308,0.328,0.469,0.489  c0.164,0.164,0.335,0.312,0.501,0.471c-0.29-0.037-0.57-0.08-0.847-0.125C20.524,29.158,20.481,28.883,20.445,28.597z M22.66,30.684  c0.486,0.414,0.974,0.801,1.465,1.164c-0.873,0.569-1.732,1.046-2.552,1.41c-0.318-0.816-0.593-1.75-0.812-2.787  C21.374,30.562,22.007,30.633,22.66,30.684z M24.338,30.764c0.221,0.005,0.438,0.015,0.662,0.015s0.441-0.01,0.662-0.015  c-0.221,0.17-0.441,0.319-0.662,0.478C24.779,31.083,24.559,30.934,24.338,30.764z M27.34,30.684  c0.653-0.051,1.286-0.122,1.899-0.213c-0.219,1.037-0.493,1.971-0.812,2.788c-0.82-0.365-1.68-0.842-2.553-1.411  C26.366,31.484,26.854,31.098,27.34,30.684z M28.585,29.557c0.166-0.159,0.337-0.307,0.501-0.471  c0.161-0.161,0.313-0.326,0.469-0.489c-0.036,0.286-0.079,0.562-0.123,0.835C29.154,29.477,28.874,29.52,28.585,29.557z   M30.683,27.356c0.419-0.491,0.81-0.986,1.179-1.484c0.563,0.864,1.034,1.722,1.401,2.554c-0.817,0.319-1.753,0.595-2.792,0.813  C30.561,28.631,30.632,28.004,30.683,27.356z M30.764,25.676c0.005-0.226,0.015-0.448,0.015-0.676s-0.01-0.451-0.015-0.676  c0.174,0.225,0.337,0.451,0.5,0.676C31.101,25.226,30.938,25.451,30.764,25.676z M30.683,22.644  c-0.051-0.647-0.122-1.275-0.212-1.883c1.039,0.219,1.975,0.494,2.792,0.813c-0.367,0.833-0.838,1.689-1.401,2.554  C31.492,23.63,31.102,23.134,30.683,22.644z M25,12.989c1.061,0,2.153,1.029,3.026,2.829c-0.976,0.432-1.997,1.011-3.026,1.707  c-1.03-0.696-2.05-1.275-3.027-1.707C22.847,14.018,23.939,12.989,25,12.989z M16.507,16.507c0.406-0.406,1.007-0.611,1.788-0.611  c0.694,0,1.494,0.173,2.354,0.477c-0.385,0.987-0.704,2.106-0.941,3.334c-1.23,0.237-2.351,0.558-3.339,0.943  C15.707,18.763,15.746,17.268,16.507,16.507z M12.988,25c0-1.062,1.031-2.154,2.833-3.028c0.436,0.988,1.008,2.006,1.699,3.028  c-0.691,1.022-1.264,2.041-1.699,3.028C14.019,27.154,12.988,26.062,12.988,25z M18.295,34.104c-0.781,0-1.382-0.206-1.788-0.611  c-0.761-0.761-0.8-2.256-0.139-4.144c0.988,0.386,2.109,0.706,3.339,0.943c0.237,1.229,0.557,2.348,0.941,3.335  C19.789,33.932,18.989,34.104,18.295,34.104z M25,37.012c-1.061,0-2.153-1.029-3.027-2.829c0.976-0.433,1.997-1.012,3.027-1.708  c1.029,0.696,2.051,1.275,3.027,1.708C27.153,35.982,26.061,37.012,25,37.012z M33.493,33.493c-0.405,0.405-1.007,0.611-1.788,0.611  c-0.693,0-1.494-0.173-2.354-0.477c0.385-0.987,0.704-2.106,0.941-3.335c1.229-0.237,2.351-0.558,3.339-0.943  C34.294,31.237,34.255,32.732,33.493,33.493z M34.18,28.028c-0.436-0.988-1.009-2.006-1.7-3.028c0.691-1.022,1.265-2.041,1.7-3.028  c1.802,0.874,2.832,1.967,2.832,3.028C37.012,26.062,35.981,27.154,34.18,28.028z"/><path d="M25,22.462c-1.399,0-2.538,1.139-2.538,2.538s1.139,2.538,2.538,2.538s2.538-1.139,2.538-2.538S26.399,22.462,25,22.462z   M25,26.538c-0.848,0-1.538-0.69-1.538-1.538s0.69-1.538,1.538-1.538c0.848,0,1.538,0.69,1.538,1.538S25.848,26.538,25,26.538z"/><text x="0" y="65" fill="#000000" font-size="5px" font-weight="bold" font-family="'Helvetica Neue', Helvetica, Arial-Unicode, Arial, Sans-serif">Created by Abd Majd</text><text x="0" y="70" fill="#000000" font-size="5px" font-weight="bold" font-family="'Helvetica Neue', Helvetica, Arial-Unicode, Arial, Sans-serif">from the Noun Project</text></svg>